<?xml version="1.0" encoding="utf-8"?>
<svg version="1.1" xmlns="http://www.w3.org/2000/svg" xmlns:xlink="http://www.w3.org/1999/xlink" x="0px" y="0px"
	 viewBox="0 0 112.2 112.2" xml:space="preserve">
<g id="_x31_">
	<polyline points="19.6,35.4 57,63.9 93.4,36.1"/>
	<line x1="48.5" y1="57.4" x2="19.2" y2="79.7"/>
	<line x1="96.2" y1="80.8" x2="65.5" y2="57.4"/>
	<path d="M56.1,0C25.1,0,0,25.1,0,56.1c0,31,25.1,56.1,56.1,56.1c31,0,56.1-25.1,56.1-56.1C112.2,25.1,87.1,0,56.1,0z
		 M32,31.4h50c3.3,0,6.1,1.7,7.7,4.3l-28,21.3c-2.8,2.1-6.7,2.1-9.5,0l-28-21.3C25.8,33.2,28.7,31.4,32,31.4z M22.9,41.1l21.4,16.3
		L22.9,73.7V41.1z M82,83.3H32c-3.3,0-6.1-1.8-7.7-4.4l24.2-18.5l3.8,2.9c2.8,2.1,6.7,2.1,9.5,0l3.8-2.9L89.7,79
		C88.1,81.6,85.3,83.3,82,83.3z M91,73.7L69.6,57.4L91,41.1V73.7z"/>
</g>
<g id="_x32_">
	<polyline points="19.6,35.4 57,63.9 93.4,36.1"/>
	<line x1="48.5" y1="57.4" x2="19.2" y2="79.7"/>
	<line x1="96.2" y1="80.8" x2="65.5" y2="57.4"/>
	<path d="M56.1,0C25.1,0,0,25.1,0,56.1c0,31,25.1,56.1,56.1,56.1c31,0,56.1-25.1,56.1-56.1C112.2,25.1,87.1,0,56.1,0z
		 M32,31.4h50c3.3,0,6.1,1.7,7.7,4.3l-28,21.3c-2.8,2.1-6.7,2.1-9.5,0l-28-21.3C25.8,33.2,28.7,31.4,32,31.4z M22.9,41.1l21.4,16.3
		L22.9,73.7V41.1z M82,83.3H32c-3.3,0-6.1-1.8-7.7-4.4l24.2-18.5l3.8,2.9c2.8,2.1,6.7,2.1,9.5,0l3.8-2.9L89.7,79
		C88.1,81.6,85.3,83.3,82,83.3z M91,73.7L69.6,57.4L91,41.1V73.7z"/>
</g>
</svg>
