<?xml version="1.0" encoding="utf-8"?>
<svg version="1.1" xmlns="http://www.w3.org/2000/svg" xmlns:xlink="http://www.w3.org/1999/xlink" x="0px" y="0px"
	 viewBox="0 0 64 64" xml:space="preserve">
<g id="_x31_">
	<g>
		<path d="M32,0C14.3,0,0,14.3,0,32s14.3,32,32,32s32-14.3,32-32S49.7,0,32,0z M48,44.8c-2.8,4.6-8.9,6.1-13.5,3.2
			c-0.8,0.1-1.7,0.2-2.5,0.2c-9,0-16.2-7.3-16.2-16.2c0-0.8,0.1-1.7,0.2-2.5c-1.9-3.2-1.9-7.1,0-10.3c2.8-4.6,8.9-6.1,13.5-3.2
			c0.8-0.1,1.7-0.2,2.5-0.2c9,0,16.2,7.3,16.2,16.2c0,0.8-0.1,1.7-0.2,2.5C50,37.7,50,41.7,48,44.8z"/>
		<path d="M38.5,31.6c-0.7-0.5-1.6-0.9-2.6-1.2s-2.1-0.6-3.3-0.9c-1-0.2-1.7-0.4-2.1-0.5c-0.4-0.1-0.8-0.3-1.2-0.5
			c-0.4-0.2-0.7-0.5-1-0.7c-0.2-0.3-0.3-0.6-0.3-1c0-0.6,0.3-1.2,1-1.6c0.7-0.4,1.5-0.7,2.7-0.7c1.2,0,2.1,0.2,2.6,0.6
			c0.5,0.4,1,1,1.4,1.8c0.3,0.5,0.6,0.9,0.9,1.2c0.3,0.3,0.7,0.4,1.2,0.4c0.5,0,1.1-0.2,1.4-0.6c0.4-0.4,0.6-0.8,0.6-1.4
			s-0.2-1.1-0.5-1.7c-0.3-0.6-0.8-1.1-1.4-1.6c-0.6-0.5-1.5-0.9-2.5-1.2c-1-0.3-2.2-0.5-3.5-0.5c-1.7,0-3.1,0.2-4.4,0.7
			c-1.3,0.5-2.2,1.1-2.9,2c-0.7,0.9-1,1.8-1,3s0.3,2.2,0.9,3s1.5,1.4,2.5,1.9c1.1,0.5,2.4,0.9,4,1.2c1.2,0.2,2.1,0.5,2.8,0.7
			c0.7,0.2,1.3,0.5,1.7,0.9c0.4,0.4,0.6,0.9,0.6,1.6c0,0.8-0.4,1.5-1.2,2.1c-0.8,0.6-1.9,0.8-3.1,0.8c-1,0-1.7-0.1-2.3-0.4
			s-1-0.6-1.3-1c-0.4-0.5-0.7-1-0.9-1.6c-0.2-0.6-0.5-1-0.8-1.3c-0.3-0.3-0.7-0.4-1.2-0.4c-0.6,0-1.1,0.2-1.5,0.6
			c-0.4,0.3-0.6,0.8-0.6,1.3c0,0.9,0.3,1.8,0.9,2.7c0.6,0.9,1.5,1.7,2.4,2.2c1.4,0.8,3.2,1.1,5.4,1.1c1.8,0,3.4-0.3,4.7-0.8
			s2.3-1.3,3-2.3l0,0c0.7-1,1-2.1,1-3.3c0-1-0.2-1.9-0.6-2.6C39.7,32.7,39.2,32.1,38.5,31.6z"/>
	</g>
</g>
<g id="_x32_">
	<g class="st2">
		<path d="M38.5,31.6c-0.7-0.5-1.6-0.9-2.6-1.2s-2.1-0.6-3.3-0.9c-1-0.2-1.7-0.4-2.1-0.5c-0.4-0.1-0.8-0.3-1.2-0.5
			c-0.4-0.2-0.7-0.5-1-0.7c-0.2-0.3-0.3-0.6-0.3-1c0-0.6,0.3-1.2,1-1.6c0.7-0.4,1.5-0.7,2.7-0.7c1.2,0,2.1,0.2,2.6,0.6
			c0.5,0.4,1,1,1.4,1.8c0.3,0.5,0.6,0.9,0.9,1.2c0.3,0.3,0.7,0.4,1.2,0.4c0.5,0,1.1-0.2,1.4-0.6c0.4-0.4,0.6-0.8,0.6-1.4
			s-0.2-1.1-0.5-1.7c-0.3-0.6-0.8-1.1-1.4-1.6c-0.6-0.5-1.5-0.9-2.5-1.2c-1-0.3-2.2-0.5-3.5-0.5c-1.7,0-3.1,0.2-4.4,0.7
			c-1.3,0.5-2.2,1.1-2.9,2c-0.7,0.9-1,1.8-1,3s0.3,2.2,0.9,3s1.5,1.4,2.5,1.9c1.1,0.5,2.4,0.9,4,1.2c1.2,0.2,2.1,0.5,2.8,0.7
			c0.7,0.2,1.3,0.5,1.7,0.9c0.4,0.4,0.6,0.9,0.6,1.6c0,0.8-0.4,1.5-1.2,2.1c-0.8,0.6-1.9,0.8-3.1,0.8c-1,0-1.7-0.1-2.3-0.4
			s-1-0.6-1.3-1c-0.4-0.5-0.7-1-0.9-1.6c-0.2-0.6-0.5-1-0.8-1.3c-0.3-0.3-0.7-0.4-1.2-0.4c-0.6,0-1.1,0.2-1.5,0.6
			c-0.4,0.3-0.6,0.8-0.6,1.3c0,0.9,0.3,1.8,0.9,2.7c0.6,0.9,1.5,1.7,2.4,2.2c1.4,0.8,3.2,1.1,5.4,1.1c1.8,0,3.4-0.3,4.7-0.8
			s2.3-1.3,3-2.3l0,0c0.7-1,1-2.1,1-3.3c0-1-0.2-1.9-0.6-2.6C39.7,32.7,39.2,32.1,38.5,31.6z"/>
		<path d="M32,0C14.3,0,0,14.3,0,32s14.3,32,32,32s32-14.3,32-32S49.7,0,32,0z M48,44.8c-2.8,4.6-8.9,6.1-13.5,3.2
			c-0.8,0.1-1.7,0.2-2.5,0.2c-9,0-16.2-7.3-16.2-16.2c0-0.8,0.1-1.7,0.2-2.5c-1.9-3.2-1.9-7.1,0-10.3c2.8-4.6,8.9-6.1,13.5-3.2
			c0.8-0.1,1.7-0.2,2.5-0.2c9,0,16.2,7.3,16.2,16.2c0,0.8-0.1,1.7-0.2,2.5C50,37.7,50,41.7,48,44.8z"/>
	</g>
</g>
</svg>
